<svg xmlns="http://www.w3.org/2000/svg"  width="24" height="24"  viewBox="0 0 24 24" fill="none"><style>
@keyframes jcqyh5tjh6ooiy696th28d26_t { 0% { transform: translate(12px,12px) rotate(0deg) translate(-12px,-12px); } 100% { transform: translate(12px,12px) rotate(360deg) translate(-12px,-12px); } }
</style><ellipse cx="12" cy="12" stroke="#fff" stroke-opacity=".4" stroke-width="3" rx="8.5" ry="8.5"/><path d="M20.5 12c.8 0 1.5 .7 1.4 1.5c-0.1 .8-0.4 1.6-0.7 2.3c-0.5 1.2-1.2 2.3-2.1 3.3c-1 .9-2.1 1.6-3.3 2.1c-0.7 .3-1.5 .6-2.3 .7c-0.8 .1-1.5-0.6-1.5-1.4c0-0.8 .7-1.5 1.5-1.7c.4 0 .8-0.2 1.2-0.3c.8-0.4 1.6-0.9 2.2-1.6c.7-0.6 1.2-1.4 1.6-2.2c.1-0.4 .3-0.8 .3-1.2c.2-0.8 .9-1.5 1.7-1.5Z" fill="#fff" transform="translate(12,12) translate(-12,-12)" style="animation: 1s linear infinite both jcqyh5tjh6ooiy696th28d26_t;"/></svg>